<svg class="svg-icon" style="width: 1em; height: 1em;vertical-align: middle;fill: #01bffa;overflow: hidden;" viewBox="0 0 1024 1024" version="1.1" xmlns="http://www.w3.org/2000/svg"><path d="M608.860524 225.250968C602.349143 230.608653 595.955519 236.082196 589.688064 241.654232L267.255589 241.654232C260.874446 241.654232 254.867468 249.69483 250.334626 254.219532 245.799343 258.740706 243.323455 264.735474 243.323455 271.127199L211.617984 271.127199C211.617984 251.938459 219.096657 233.920237 232.651226 220.364583 246.206609 206.8092 264.249522 207.927351 283.415199 207.927351L594.53402 207.927351 630.38216 208.309656C623.24075 213.679822 616.060812 219.325931 608.860524 225.250968ZM498.058243 319.006389 498.805757 319.006389 498.805757 319.744136 507.858145 328.668184C500.790266 337.719487 494.102249 346.806334 487.826111 355.87473L135.613253 355.87473C128.977603 355.87473 121.719521 360.98849 117.006245 365.692269 112.288899 370.397677 110.723866 379.673098 110.723866 386.322857L110.219192 896.888606C108.702728 899.482251 115.343805 919.365868 120.035646 924.078872 124.750007 928.772884 136.552869 936.926626 143.187434 936.926626L628.034612 936.926626C631.640861 936.926626 647.976835 931.297068 652.68984 926.604685 657.381952 921.889781 659.478249 907.05806 658.973575 903.451811L658.973575 554.998775 660.958626 504.464348C665.677329 500.965545 670.414482 497.343559 675.164117 493.60056L692.280165 510.473768 692.280165 558.339663 692.280165 893.393331C692.280165 912.557923 687.831979 935.144259 677.305997 946.682031 664.384441 960.841666 637.63183 968.727877 618.467239 968.727877L150.013829 968.727877C130.848153 968.727877 110.281598 961.752521 96.72513 948.197138 83.170561 934.639585 78.216615 912.557923 78.216615 893.393331L78.216615 390.804418C78.216615 371.617306 85.695288 353.58606 99.250942 340.030406 112.806325 326.473123 130.848153 319.006389 150.013829 319.006389L450.940676 319.006389 498.058243 319.006389ZM187.685037 823.485388 570.602158 823.485388 570.602158 857.091799 187.685037 857.091799 187.685037 823.485388ZM570.602158 727.823059 187.685037 727.823059 187.685037 695.234951 570.602158 695.234951 570.602158 727.823059ZM187.685037 452.348066 379.143462 452.348066 379.143462 486.464577 187.685037 486.464577 187.685037 452.348066ZM379.143462 598.04449 187.685037 598.04449 187.685037 566.982614 379.143462 566.982614 379.143462 598.04449ZM778.98046 795.35225C783.492409 790.819951 790.466137 780.10648 790.466137 773.72588L790.466137 438.672212 789.584042 402.720424C789.934058 403.749851 788.324256 378.805384 802.501257 362.168776 803.356761 361.164583 804.032916 360.284117 804.556312 359.5016L822.748456 376.424462 823.775983 438.672212 823.775983 773.72588C823.775983 792.8921 818.985378 806.903317 805.429995 820.458701 791.875426 834.012456 771.144716 837.460519 751.978768 837.460519L738.128449 837.460519 738.128449 802.365321 762.060583 802.365321C768.441725 802.365321 774.447618 799.863928 778.98046 795.35225ZM805.880403 355.720072C806.061109 356.63554 805.669037 357.837533 804.556312 359.5016L803.753174 358.754629C804.467315 357.742838 805.176301 356.73132 805.880403 355.720072Z"  /><path d="M926.590576 185.847317 619.879512 492.559194C596.097153 516.344267 498.009675 538.866569 478.585149 543.143004 477.494944 543.385573 476.390088 543.502245 475.300155 543.502245 471.293151 543.502245 467.386811 541.925003 464.490904 539.026654L461.168738 535.69879C457.391822 531.927029 455.861791 526.459184 457.123476 521.275693 461.759423 502.23727 486.064636 406.06701 509.736021 382.404036L816.437316 75.688632C829.508375 62.616759 847.080259 55.421083 865.921696 55.421083 885.854152 55.421083 904.753653 63.339582 919.131981 77.721166L922.453062 81.043332C936.136784 94.719186 944.631317 113.644736 945.76602 132.967241 946.974796 153.496352 940.159797 172.27674 926.590576 185.847317ZM882.176814 187.020006 866.769874 171.613066 599.329238 439.064013 614.732651 454.467697 882.176814 187.020006ZM504.682497 465.409357C500.094847 479.630041 495.706896 494.641382 491.938934 508.627366 506.178883 505.125579 521.46698 501.012757 535.943258 496.675816L504.682497 465.409357ZM531.354251 404.022809C525.370336 410.007809 517.698205 427.651324 510.120496 449.229126L552.403502 491.520543C574.37419 484.304246 592.303958 476.895305 598.262368 470.938523L603.923671 465.276948 583.125944 444.478949C583.122688 444.475421 583.118618 444.472708 583.115091 444.469181 583.111835 444.465653 583.10885 444.461855 583.105323 444.458328L537.01257 398.36449 531.354251 404.022809ZM815.262728 120.105107 547.821278 387.555239 563.226862 402.961094 785.489128 180.695843C788.473759 177.708769 793.311305 177.708769 796.297022 180.695843 799.28301 183.682645 799.28301 188.519919 796.297022 191.503194L574.035027 413.76953 588.521073 428.255576 855.962251 160.804901 841.476206 146.318855 818.423453 169.372422C816.930323 170.865009 814.974033 171.612252 813.018828 171.612252 811.063623 171.612252 809.107061 170.865009 807.614202 169.372422 804.628214 166.385348 804.628214 161.546446 807.614202 158.561272L830.666412 135.508791 815.262728 120.105107ZM915.24382 134.762904C914.540803 122.81271 909.293007 111.117024 900.835646 102.664004L897.512666 99.341838C888.906887 90.734703 877.687385 85.997278 865.921696 85.997278 855.247296 85.997278 845.356227 90.013778 838.055818 97.311203L826.070893 109.296399 846.87459 130.100638C846.875947 130.101995 846.877575 130.10308 846.878932 130.104437 846.880288 130.105793 846.881374 130.10715 846.88273 130.108507L892.985251 176.21157 904.970175 164.226645C912.278995 156.916197 915.929742 146.449365 915.24382 134.762904Z"  /></svg>