<svg class="svg-icon" style="width: 1em; height: 1em;vertical-align: middle;fill: #4ade80;overflow: hidden;" viewBox="0 0 1024 1024" version="1.1" xmlns="http://www.w3.org/2000/svg"><path d="M376.091017 762.495546a27.093292 27.093292 0 0 1-27.093292-27.093292V428.200448a27.093292 27.093292 0 0 1 54.186583 0v307.201806a27.093292 27.093292 0 0 1-27.093291 27.093292zM511.629725 762.495546a27.093292 27.093292 0 0 1-27.093292-27.093292V428.200448a27.093292 27.093292 0 1 1 54.186584 0v307.201806a27.093292 27.093292 0 0 1-27.093292 27.093292zM647.186496 762.495546a27.093292 27.093292 0 0 1-27.093292-27.093292V428.200448a27.093292 27.093292 0 0 1 54.186584 0v307.201806a27.093292 27.093292 0 0 1-27.093292 27.093292z" fill="#ed47ba" /><path d="M751.116364 954.352178H280.090452a98.872453 98.872453 0 0 1-98.782142-98.764081V333.337802a98.872453 98.872453 0 0 1 98.782142-98.76408h471.025912a98.872453 98.872453 0 0 1 98.782142 98.76408v522.250295a98.872453 98.872453 0 0 1-98.782142 98.764081z m-471.025912-665.591872a44.631683 44.631683 0 0 0-44.595558 44.577496v522.250295a44.631683 44.631683 0 0 0 44.595558 44.577497h471.025912a44.631683 44.631683 0 0 0 44.595558-44.577497V333.337802a44.631683 44.631683 0 0 0-44.595558-44.577496z" fill="#ed47ba" /><path d="M822.805214 377.373432a27.093292 27.093292 0 0 1-27.093292-27.093292v-128.241581a44.649745 44.649745 0 0 0-44.595558-44.595559H280.090452a44.649745 44.649745 0 0 0-44.595558 44.595559v128.241581a27.093292 27.093292 0 0 1-54.186584 0v-128.241581a98.890516 98.890516 0 0 1 98.782142-98.782143h471.025912a98.890516 98.890516 0 0 1 98.782142 98.782143v128.241581a27.093292 27.093292 0 0 1-27.093292 27.093292z" fill="#ed47ba" /><path d="M950.793925 358.733247a27.093292 27.093292 0 0 1-27.093292-27.093291 44.631683 44.631683 0 0 0-44.577496-44.577497H152.083679a44.631683 44.631683 0 0 0-44.595559 44.577497 27.093292 27.093292 0 0 1-54.186584 0 98.890516 98.890516 0 0 1 98.782143-98.764081h727.039458a98.872453 98.872453 0 0 1 98.76408 98.764081 27.093292 27.093292 0 0 1-27.093292 27.093291z" fill="#ed47ba" /></svg>